<svg width="135" height="37" viewBox="0 0 135 37" fill="none" xmlns="http://www.w3.org/2000/svg">
<path fill-rule="evenodd" clip-rule="evenodd" d="M17.6798 13.875H13.9831L19.1228 3.59507C19.4776 2.886 19.5106 1.97372 19.209 1.22158C18.9068 0.469727 18.3191 0 17.6798 0H9.00788C8.38545 0 7.81051 0.444867 7.50222 1.16521L0.564721 17.3527C0.258171 18.0687 0.259905 18.9472 0.570575 19.6606C0.880378 20.3743 1.45207 20.8125 2.07038 20.8125H7.75371L2.29888 33.5402C1.86789 34.5453 2.0617 35.8212 2.75198 36.5257C3.06439 36.8442 3.43533 37 3.80388 37C4.25114 37 4.6947 36.7719 5.03095 36.3224L18.906 17.8224C19.4022 17.1608 19.5505 16.167 19.2819 15.3021C19.0135 14.4395 18.3809 13.875 17.6798 13.875ZM35.1792 13.2627V24H36.6001V19.2319H38.248C38.6143 19.2319 38.8779 19.249 39.0391 19.2832C39.2588 19.3369 39.4736 19.4321 39.6836 19.5688C39.8984 19.7056 40.1401 19.9448 40.4087 20.2866C40.6772 20.6284 41.019 21.1216 41.4341 21.7661L42.855 24H44.6421L42.7744 21.0776C42.4033 20.5063 42.0103 20.0303 41.5952 19.6494C41.3999 19.4736 41.1143 19.2954 40.7383 19.1147C41.7686 18.9731 42.5303 18.6411 43.0234 18.1187C43.5166 17.5962 43.7632 16.9541 43.7632 16.1924C43.7632 15.6016 43.6143 15.062 43.3164 14.5737C43.0186 14.0854 42.6206 13.7461 42.1226 13.5557C41.6245 13.3604 40.897 13.2627 39.9399 13.2627H35.1792ZM39.6543 18.0015H36.6001V14.4492H39.9985C40.7944 14.4492 41.3755 14.6128 41.7417 14.9399C42.1128 15.2671 42.2983 15.6846 42.2983 16.1924C42.2983 16.5391 42.2031 16.8613 42.0127 17.1592C41.8223 17.4521 41.5439 17.667 41.1777 17.8037C40.8115 17.9355 40.3037 18.0015 39.6543 18.0015ZM52.5156 21.6636L51.1533 21.4951C50.9531 22.0518 50.6821 22.457 50.3403 22.7109C49.9985 22.9648 49.5859 23.0918 49.1025 23.0918C48.4531 23.0918 47.9111 22.8647 47.4766 22.4106C47.042 21.9565 46.8003 21.3022 46.7515 20.4478H52.5522C52.5571 20.2915 52.5596 20.1743 52.5596 20.0962C52.5596 18.812 52.23 17.8159 51.5708 17.1079C50.9116 16.3999 50.062 16.0459 49.022 16.0459C47.9478 16.0459 47.0737 16.4072 46.3999 17.1299C45.7261 17.8525 45.3892 18.8682 45.3892 20.1768C45.3892 21.4414 45.7212 22.4253 46.3853 23.1284C47.0542 23.8267 47.9575 24.1758 49.0952 24.1758C49.9985 24.1758 50.7407 23.9561 51.3218 23.5166C51.9028 23.0771 52.3008 22.4595 52.5156 21.6636ZM51.168 19.3638H46.8247C46.8687 18.6851 47.0957 18.1431 47.5059 17.7378C47.9209 17.3325 48.4312 17.1299 49.0366 17.1299C49.7056 17.1299 50.25 17.3838 50.6699 17.8916C50.9434 18.2188 51.1094 18.7095 51.168 19.3638ZM54.9546 21.4731L53.6509 21.6782C53.7974 22.5034 54.1343 23.126 54.6616 23.5459C55.1938 23.9658 55.9653 24.1758 56.9761 24.1758C57.5864 24.1758 58.1333 24.0708 58.6167 23.8608C59.1001 23.646 59.4688 23.3457 59.7227 22.96C59.9814 22.5693 60.1108 22.1543 60.1108 21.7148C60.1108 21.2656 60.0059 20.8896 59.7959 20.5869C59.5859 20.2842 59.2954 20.0547 58.9243 19.8984C58.5581 19.7373 57.9087 19.5322 56.9761 19.2832C56.3315 19.1074 55.9434 18.9951 55.8115 18.9463C55.582 18.8535 55.4136 18.7363 55.3062 18.5947C55.1987 18.458 55.145 18.3042 55.145 18.1333C55.145 17.8647 55.2744 17.6304 55.5332 17.4302C55.792 17.23 56.2241 17.1299 56.8296 17.1299C57.3423 17.1299 57.7378 17.2422 58.0161 17.4668C58.2993 17.6914 58.4702 18.0039 58.5288 18.4043L59.8179 18.2285C59.7349 17.7256 59.5835 17.3252 59.3638 17.0273C59.144 16.7246 58.8022 16.4854 58.3384 16.3096C57.8794 16.1338 57.3447 16.0459 56.7344 16.0459C56.3291 16.0459 55.9482 16.0996 55.5918 16.207C55.2402 16.3096 54.9619 16.4365 54.7568 16.5879C54.4834 16.7832 54.2661 17.0298 54.105 17.3276C53.9487 17.6206 53.8706 17.9404 53.8706 18.2871C53.8706 18.668 53.9658 19.0171 54.1562 19.3345C54.3516 19.647 54.6348 19.8936 55.0059 20.0742C55.3818 20.25 56.0532 20.46 57.02 20.7041C57.7378 20.8848 58.187 21.0337 58.3677 21.1509C58.6265 21.3218 58.7559 21.5562 58.7559 21.854C58.7559 22.186 58.6094 22.4766 58.3164 22.7256C58.0234 22.9697 57.5742 23.0918 56.9688 23.0918C56.3682 23.0918 55.8994 22.9526 55.5625 22.6743C55.2305 22.396 55.0278 21.9956 54.9546 21.4731ZM61.6855 13.2627V14.7788H63.0039V13.2627H61.6855ZM61.6855 16.2217V24H63.0039V16.2217H61.6855ZM65.7944 21.4731L64.4907 21.6782C64.6372 22.5034 64.9741 23.126 65.5015 23.5459C66.0337 23.9658 66.8052 24.1758 67.8159 24.1758C68.4263 24.1758 68.9731 24.0708 69.4565 23.8608C69.9399 23.646 70.3086 23.3457 70.5625 22.96C70.8213 22.5693 70.9507 22.1543 70.9507 21.7148C70.9507 21.2656 70.8457 20.8896 70.6357 20.5869C70.4258 20.2842 70.1353 20.0547 69.7642 19.8984C69.3979 19.7373 68.7485 19.5322 67.8159 19.2832C67.1714 19.1074 66.7832 18.9951 66.6514 18.9463C66.4219 18.8535 66.2534 18.7363 66.146 18.5947C66.0386 18.458 65.9849 18.3042 65.9849 18.1333C65.9849 17.8647 66.1143 17.6304 66.373 17.4302C66.6318 17.23 67.064 17.1299 67.6694 17.1299C68.1821 17.1299 68.5776 17.2422 68.856 17.4668C69.1392 17.6914 69.3101 18.0039 69.3687 18.4043L70.6577 18.2285C70.5747 17.7256 70.4233 17.3252 70.2036 17.0273C69.9839 16.7246 69.6421 16.4854 69.1782 16.3096C68.7192 16.1338 68.1846 16.0459 67.5742 16.0459C67.1689 16.0459 66.7881 16.0996 66.4316 16.207C66.0801 16.3096 65.8018 16.4365 65.5967 16.5879C65.3232 16.7832 65.106 17.0298 64.9448 17.3276C64.7886 17.6206 64.7104 17.9404 64.7104 18.2871C64.7104 18.668 64.8057 19.0171 64.9961 19.3345C65.1914 19.647 65.4746 19.8936 65.8457 20.0742C66.2217 20.25 66.8931 20.46 67.8599 20.7041C68.5776 20.8848 69.0269 21.0337 69.2075 21.1509C69.4663 21.3218 69.5957 21.5562 69.5957 21.854C69.5957 22.186 69.4492 22.4766 69.1562 22.7256C68.8633 22.9697 68.4141 23.0918 67.8086 23.0918C67.208 23.0918 66.7393 22.9526 66.4023 22.6743C66.0703 22.396 65.8677 21.9956 65.7944 21.4731ZM75.5869 23.9854L75.3965 22.8208C75.1572 22.855 74.9644 22.8721 74.8179 22.8721C74.6226 22.8721 74.4712 22.8403 74.3638 22.7769C74.2612 22.7134 74.1855 22.6279 74.1367 22.5205C74.0928 22.4131 74.0708 22.1714 74.0708 21.7954V17.2471H75.3965V16.2217H74.0708V13.5044L72.7598 14.2954V16.2217H71.793V17.2471H72.7598V21.7222C72.7598 22.5132 72.8135 23.0332 72.9209 23.2822C73.0283 23.5264 73.2139 23.7241 73.4775 23.8755C73.7412 24.0269 74.1123 24.1025 74.5908 24.1025C74.8838 24.1025 75.2158 24.0635 75.5869 23.9854ZM80.355 23.9194C80.8091 23.7485 81.2803 23.4556 81.7686 23.0405C81.8076 23.4067 81.8955 23.7266 82.0322 24H83.4092C83.2432 23.7021 83.1309 23.3921 83.0723 23.0698C83.0186 22.7427 82.9917 21.9663 82.9917 20.7407V18.9829C82.9917 18.397 82.9697 17.9917 82.9258 17.7671C82.8477 17.4058 82.7109 17.1079 82.5156 16.8735C82.3203 16.6343 82.0151 16.4365 81.6001 16.2803C81.1851 16.124 80.6455 16.0459 79.9814 16.0459C79.3125 16.0459 78.7241 16.1387 78.2163 16.3242C77.7085 16.5049 77.3203 16.7661 77.0518 17.1079C76.7832 17.4448 76.5903 17.8892 76.4731 18.4409L77.7622 18.6167C77.9038 18.0649 78.1211 17.6816 78.4141 17.4668C78.7119 17.2471 79.1709 17.1372 79.791 17.1372C80.4551 17.1372 80.9556 17.2861 81.2925 17.584C81.5415 17.8037 81.666 18.1821 81.666 18.7192C81.666 18.7681 81.6636 18.8828 81.6587 19.0635C81.1558 19.2393 80.3721 19.3906 79.3076 19.5176C78.7852 19.5811 78.3945 19.647 78.1357 19.7153C77.7842 19.813 77.4668 19.957 77.1836 20.1475C76.9053 20.3379 76.6782 20.5918 76.5024 20.9092C76.3315 21.2217 76.2461 21.5684 76.2461 21.9492C76.2461 22.5986 76.4756 23.1333 76.9346 23.5532C77.3936 23.9683 78.0503 24.1758 78.9048 24.1758C79.4224 24.1758 79.9058 24.0903 80.355 23.9194ZM79.5054 20.5942C80.4624 20.4575 81.1802 20.2915 81.6587 20.0962V20.5796C81.6587 21.1606 81.5879 21.6001 81.4463 21.8979C81.2607 22.2837 80.9702 22.5889 80.5747 22.8135C80.1792 23.0332 79.7275 23.1431 79.2197 23.1431C78.707 23.1431 78.3164 23.0259 78.0479 22.7915C77.7842 22.5571 77.6523 22.2642 77.6523 21.9126C77.6523 21.6831 77.7134 21.4756 77.8354 21.29C77.9575 21.0996 78.1309 20.9556 78.3555 20.8579C78.5801 20.7603 78.9634 20.6724 79.5054 20.5942ZM85.0425 16.2217V24H86.3608V19.752C86.3608 18.7559 86.5635 18.0796 86.9688 17.7231C87.3789 17.3667 87.8647 17.1885 88.4263 17.1885C88.7778 17.1885 89.083 17.269 89.3418 17.4302C89.6055 17.5864 89.7886 17.7988 89.8911 18.0674C89.9937 18.3311 90.0449 18.7314 90.0449 19.2686V24H91.3633V19.2173C91.3633 18.6069 91.3389 18.1797 91.29 17.9355C91.2119 17.5596 91.0752 17.2349 90.8799 16.9614C90.6846 16.688 90.3892 16.4683 89.9937 16.3022C89.603 16.1313 89.1733 16.0459 88.7046 16.0459C87.6255 16.0459 86.8003 16.4731 86.229 17.3276V16.2217H85.0425ZM99.7642 21.3193L98.4678 21.1509C98.375 21.8101 98.1553 22.2983 97.8086 22.6157C97.4619 22.9331 97.0298 23.0918 96.5122 23.0918C95.8677 23.0918 95.3452 22.855 94.9448 22.3813C94.5444 21.9077 94.3442 21.1484 94.3442 20.1035C94.3442 19.0732 94.5518 18.3213 94.9668 17.8477C95.3818 17.3691 95.9214 17.1299 96.5854 17.1299C97.0249 17.1299 97.3984 17.2617 97.7061 17.5254C98.0186 17.7891 98.2358 18.1821 98.3579 18.7046L99.6396 18.5068C99.4883 17.7207 99.144 17.1152 98.6069 16.6904C98.0698 16.2607 97.3789 16.0459 96.5342 16.0459C95.8652 16.0459 95.2451 16.2046 94.6738 16.522C94.1074 16.8345 93.6851 17.3057 93.4067 17.9355C93.1284 18.5654 92.9893 19.3003 92.9893 20.1401C92.9893 21.439 93.3115 22.4375 93.9561 23.1357C94.6055 23.8291 95.4624 24.1758 96.5269 24.1758C97.3765 24.1758 98.0918 23.9243 98.6729 23.4214C99.2588 22.9136 99.6226 22.2129 99.7642 21.3193ZM107.579 21.6636L106.217 21.4951C106.017 22.0518 105.746 22.457 105.404 22.7109C105.062 22.9648 104.649 23.0918 104.166 23.0918C103.517 23.0918 102.975 22.8647 102.54 22.4106C102.105 21.9565 101.864 21.3022 101.815 20.4478H107.616C107.621 20.2915 107.623 20.1743 107.623 20.0962C107.623 18.812 107.293 17.8159 106.634 17.1079C105.975 16.3999 105.125 16.0459 104.085 16.0459C103.011 16.0459 102.137 16.4072 101.463 17.1299C100.79 17.8525 100.453 18.8682 100.453 20.1768C100.453 21.4414 100.785 22.4253 101.449 23.1284C102.118 23.8267 103.021 24.1758 104.159 24.1758C105.062 24.1758 105.804 23.9561 106.385 23.5166C106.966 23.0771 107.364 22.4595 107.579 21.6636ZM106.231 19.3638H101.888C101.932 18.6851 102.159 18.1431 102.569 17.7378C102.984 17.3325 103.495 17.1299 104.1 17.1299C104.769 17.1299 105.313 17.3838 105.733 17.8916C106.007 18.2188 106.173 18.7095 106.231 19.3638ZM109.41 13.2627V24H113.285C113.934 24 114.508 23.939 115.006 23.8169C115.509 23.6948 115.936 23.5166 116.288 23.2822C116.644 23.043 116.971 22.7183 117.269 22.3081C117.567 21.8931 117.811 21.3706 118.001 20.7407C118.192 20.1108 118.287 19.3882 118.287 18.5728C118.287 17.6157 118.146 16.7661 117.862 16.0239C117.584 15.2769 117.162 14.6641 116.595 14.1855C116.161 13.8145 115.636 13.5581 115.021 13.4165C114.581 13.314 113.944 13.2627 113.109 13.2627H109.41ZM113.124 22.7329H110.831V14.5298H113.087C113.932 14.5298 114.544 14.603 114.925 14.7495C115.453 14.9546 115.899 15.3599 116.266 15.9653C116.637 16.5659 116.822 17.4277 116.822 18.5508C116.822 19.3613 116.727 20.0522 116.537 20.6235C116.351 21.1899 116.09 21.6416 115.753 21.9785C115.514 22.2178 115.191 22.4033 114.786 22.5352C114.386 22.667 113.832 22.7329 113.124 22.7329ZM126.769 21.6636L125.406 21.4951C125.206 22.0518 124.935 22.457 124.593 22.7109C124.251 22.9648 123.839 23.0918 123.355 23.0918C122.706 23.0918 122.164 22.8647 121.729 22.4106C121.295 21.9565 121.053 21.3022 121.004 20.4478H126.805C126.81 20.2915 126.812 20.1743 126.812 20.0962C126.812 18.812 126.483 17.8159 125.824 17.1079C125.165 16.3999 124.315 16.0459 123.275 16.0459C122.201 16.0459 121.327 16.4072 120.653 17.1299C119.979 17.8525 119.642 18.8682 119.642 20.1768C119.642 21.4414 119.974 22.4253 120.638 23.1284C121.307 23.8267 122.21 24.1758 123.348 24.1758C124.251 24.1758 124.994 23.9561 125.575 23.5166C126.156 23.0771 126.554 22.4595 126.769 21.6636ZM125.421 19.3638H121.078C121.122 18.6851 121.349 18.1431 121.759 17.7378C122.174 17.3325 122.684 17.1299 123.29 17.1299C123.958 17.1299 124.503 17.3838 124.923 17.8916C125.196 18.2188 125.362 18.7095 125.421 19.3638ZM127.633 16.2217L130.592 24H131.822L134.767 16.2217H133.412L131.683 20.9678C131.473 21.5439 131.31 22.0371 131.192 22.4473C131.041 21.9053 130.875 21.3828 130.694 20.8799L129.024 16.2217H127.633Z" fill="#152C34"/>
</svg>
