<svg width="135" height="37" viewBox="0 0 135 37" fill="none" xmlns="http://www.w3.org/2000/svg">
<path fill-rule="evenodd" clip-rule="evenodd" d="M17.6797 13.875H13.9831L19.1227 3.59507C19.4776 2.886 19.5105 1.97372 19.209 1.22158C18.9068 0.469727 18.319 0 17.6797 0H9.00782C8.38539 0 7.81045 0.444867 7.50216 1.16521L0.56466 17.3527C0.25811 18.0687 0.259844 18.9472 0.570514 19.6606C0.880317 20.3743 1.45201 20.8125 2.07031 20.8125H7.75364L2.29882 33.5402C1.86783 34.5453 2.06164 35.8212 2.75192 36.5257C3.06433 36.8442 3.43527 37 3.80382 37C4.25107 37 4.69464 36.7719 5.03089 36.3224L18.9059 17.8224C19.4021 17.1608 19.5504 16.167 19.2818 15.3021C19.0134 14.4395 18.3808 13.875 17.6797 13.875ZM35.0986 13.2627V24H41.8076V22.7329H36.5195V13.2627H35.0986ZM48.436 22.8574V24H49.6152V16.2217H48.2969V20.3892C48.2969 21.0532 48.2236 21.561 48.0771 21.9126C47.9355 22.2593 47.6914 22.5352 47.3447 22.7402C46.998 22.9404 46.627 23.0405 46.2314 23.0405C45.8359 23.0405 45.5039 22.9429 45.2354 22.7476C44.9668 22.5474 44.791 22.2739 44.708 21.9272C44.6543 21.688 44.6274 21.2241 44.6274 20.5356V16.2217H43.3091V21.041C43.3091 21.6025 43.3359 22.0127 43.3896 22.2715C43.4678 22.6572 43.6021 22.9844 43.7925 23.2529C43.9878 23.5166 44.2832 23.7363 44.6787 23.9121C45.0791 24.0879 45.5088 24.1758 45.9678 24.1758C47.0078 24.1758 47.8306 23.7363 48.436 22.8574ZM51.6953 13.2627V14.7788H53.0137V13.2627H51.6953ZM51.6953 16.2217V24H53.0137V16.2217H51.6953ZM55.8042 21.4731L54.5005 21.6782C54.647 22.5034 54.9839 23.126 55.5112 23.5459C56.0435 23.9658 56.8149 24.1758 57.8257 24.1758C58.436 24.1758 58.9829 24.0708 59.4663 23.8608C59.9497 23.646 60.3184 23.3457 60.5723 22.96C60.8311 22.5693 60.9604 22.1543 60.9604 21.7148C60.9604 21.2656 60.8555 20.8896 60.6455 20.5869C60.4355 20.2842 60.145 20.0547 59.7739 19.8984C59.4077 19.7373 58.7583 19.5322 57.8257 19.2832C57.1812 19.1074 56.793 18.9951 56.6611 18.9463C56.4316 18.8535 56.2632 18.7363 56.1558 18.5947C56.0483 18.458 55.9946 18.3042 55.9946 18.1333C55.9946 17.8647 56.124 17.6304 56.3828 17.4302C56.6416 17.23 57.0737 17.1299 57.6792 17.1299C58.1919 17.1299 58.5874 17.2422 58.8657 17.4668C59.1489 17.6914 59.3198 18.0039 59.3784 18.4043L60.6675 18.2285C60.5845 17.7256 60.4331 17.3252 60.2134 17.0273C59.9937 16.7246 59.6519 16.4854 59.188 16.3096C58.729 16.1338 58.1943 16.0459 57.584 16.0459C57.1787 16.0459 56.7979 16.0996 56.4414 16.207C56.0898 16.3096 55.8115 16.4365 55.6064 16.5879C55.333 16.7832 55.1157 17.0298 54.9546 17.3276C54.7983 17.6206 54.7202 17.9404 54.7202 18.2871C54.7202 18.668 54.8154 19.0171 55.0059 19.3345C55.2012 19.647 55.4844 19.8936 55.8555 20.0742C56.2314 20.25 56.9028 20.46 57.8696 20.7041C58.5874 20.8848 59.0366 21.0337 59.2173 21.1509C59.4761 21.3218 59.6055 21.5562 59.6055 21.854C59.6055 22.186 59.459 22.4766 59.166 22.7256C58.873 22.9697 58.4238 23.0918 57.8184 23.0918C57.2178 23.0918 56.749 22.9526 56.4121 22.6743C56.0801 22.396 55.8774 21.9956 55.8042 21.4731ZM61.8394 22.6816V24H70.3281V22.7329H63.4727L64.1245 21.9785L70.1523 14.5298V13.2627H62.4619V14.5298H68.4531C68.1016 14.8911 67.7305 15.3159 67.3398 15.8042L61.8394 22.6816ZM75.3599 23.9194C75.814 23.7485 76.2852 23.4556 76.7734 23.0405C76.8125 23.4067 76.9004 23.7266 77.0371 24H78.4141C78.248 23.7021 78.1357 23.3921 78.0771 23.0698C78.0234 22.7427 77.9966 21.9663 77.9966 20.7407V18.9829C77.9966 18.397 77.9746 17.9917 77.9307 17.7671C77.8525 17.4058 77.7158 17.1079 77.5205 16.8735C77.3252 16.6343 77.02 16.4365 76.605 16.2803C76.1899 16.124 75.6504 16.0459 74.9863 16.0459C74.3174 16.0459 73.729 16.1387 73.2212 16.3242C72.7134 16.5049 72.3252 16.7661 72.0566 17.1079C71.7881 17.4448 71.5952 17.8892 71.478 18.4409L72.7671 18.6167C72.9087 18.0649 73.126 17.6816 73.4189 17.4668C73.7168 17.2471 74.1758 17.1372 74.7959 17.1372C75.46 17.1372 75.9604 17.2861 76.2974 17.584C76.5464 17.8037 76.6709 18.1821 76.6709 18.7192C76.6709 18.7681 76.6685 18.8828 76.6636 19.0635C76.1606 19.2393 75.377 19.3906 74.3125 19.5176C73.79 19.5811 73.3994 19.647 73.1406 19.7153C72.7891 19.813 72.4717 19.957 72.1885 20.1475C71.9102 20.3379 71.6831 20.5918 71.5073 20.9092C71.3364 21.2217 71.251 21.5684 71.251 21.9492C71.251 22.5986 71.4805 23.1333 71.9395 23.5532C72.3984 23.9683 73.0552 24.1758 73.9097 24.1758C74.4272 24.1758 74.9106 24.0903 75.3599 23.9194ZM74.5103 20.5942C75.4673 20.4575 76.1851 20.2915 76.6636 20.0962V20.5796C76.6636 21.1606 76.5928 21.6001 76.4512 21.8979C76.2656 22.2837 75.9751 22.5889 75.5796 22.8135C75.1841 23.0332 74.7324 23.1431 74.2246 23.1431C73.7119 23.1431 73.3213 23.0259 73.0527 22.7915C72.7891 22.5571 72.6572 22.2642 72.6572 21.9126C72.6572 21.6831 72.7183 21.4756 72.8403 21.29C72.9624 21.0996 73.1357 20.9556 73.3604 20.8579C73.585 20.7603 73.9683 20.6724 74.5103 20.5942ZM80.0474 16.2217V26.981H81.3657V23.1943C81.5903 23.4775 81.876 23.7119 82.2227 23.8975C82.5742 24.083 82.9697 24.1758 83.4092 24.1758C84.0098 24.1758 84.5811 24.0073 85.123 23.6704C85.6699 23.3286 86.085 22.8403 86.3682 22.2056C86.6562 21.5659 86.8003 20.8481 86.8003 20.0522C86.8003 19.3101 86.6709 18.6289 86.4121 18.0088C86.1533 17.3838 85.77 16.9004 85.2622 16.5586C84.7544 16.2168 84.1685 16.0459 83.5044 16.0459C82.9966 16.0459 82.5645 16.146 82.208 16.3462C81.8516 16.5415 81.5317 16.8369 81.2485 17.2324V16.2217H80.0474ZM81.8491 22.374C81.4438 21.8955 81.2412 21.1558 81.2412 20.1548C81.2412 19.1538 81.4561 18.3921 81.8857 17.8696C82.3203 17.3423 82.8184 17.0786 83.3799 17.0786C83.9463 17.0786 84.4321 17.3252 84.8374 17.8184C85.2476 18.3115 85.4526 19.0537 85.4526 20.0449C85.4526 21.085 85.2427 21.854 84.8228 22.3521C84.4077 22.8452 83.9072 23.0918 83.3213 23.0918C82.7451 23.0918 82.2544 22.8525 81.8491 22.374ZM92.0591 23.9194C92.5132 23.7485 92.9844 23.4556 93.4727 23.0405C93.5117 23.4067 93.5996 23.7266 93.7363 24H95.1133C94.9473 23.7021 94.835 23.3921 94.7764 23.0698C94.7227 22.7427 94.6958 21.9663 94.6958 20.7407V18.9829C94.6958 18.397 94.6738 17.9917 94.6299 17.7671C94.5518 17.4058 94.415 17.1079 94.2197 16.8735C94.0244 16.6343 93.7192 16.4365 93.3042 16.2803C92.8892 16.124 92.3496 16.0459 91.6855 16.0459C91.0166 16.0459 90.4282 16.1387 89.9204 16.3242C89.4126 16.5049 89.0244 16.7661 88.7559 17.1079C88.4873 17.4448 88.2944 17.8892 88.1772 18.4409L89.4663 18.6167C89.6079 18.0649 89.8252 17.6816 90.1182 17.4668C90.416 17.2471 90.875 17.1372 91.4951 17.1372C92.1592 17.1372 92.6597 17.2861 92.9966 17.584C93.2456 17.8037 93.3701 18.1821 93.3701 18.7192C93.3701 18.7681 93.3677 18.8828 93.3628 19.0635C92.8599 19.2393 92.0762 19.3906 91.0117 19.5176C90.4893 19.5811 90.0986 19.647 89.8398 19.7153C89.4883 19.813 89.1709 19.957 88.8877 20.1475C88.6094 20.3379 88.3823 20.5918 88.2065 20.9092C88.0356 21.2217 87.9502 21.5684 87.9502 21.9492C87.9502 22.5986 88.1797 23.1333 88.6387 23.5532C89.0977 23.9683 89.7544 24.1758 90.6089 24.1758C91.1265 24.1758 91.6099 24.0903 92.0591 23.9194ZM91.2095 20.5942C92.1665 20.4575 92.8843 20.2915 93.3628 20.0962V20.5796C93.3628 21.1606 93.292 21.6001 93.1504 21.8979C92.9648 22.2837 92.6743 22.5889 92.2788 22.8135C91.8833 23.0332 91.4316 23.1431 90.9238 23.1431C90.4111 23.1431 90.0205 23.0259 89.752 22.7915C89.4883 22.5571 89.3564 22.2642 89.3564 21.9126C89.3564 21.6831 89.4175 21.4756 89.5396 21.29C89.6616 21.0996 89.835 20.9556 90.0596 20.8579C90.2842 20.7603 90.6675 20.6724 91.2095 20.5942ZM99.8154 23.9854L99.625 22.8208C99.3857 22.855 99.1929 22.8721 99.0464 22.8721C98.8511 22.8721 98.6997 22.8403 98.5923 22.7769C98.4897 22.7134 98.4141 22.6279 98.3652 22.5205C98.3213 22.4131 98.2993 22.1714 98.2993 21.7954V17.2471H99.625V16.2217H98.2993V13.5044L96.9883 14.2954V16.2217H96.0215V17.2471H96.9883V21.7222C96.9883 22.5132 97.042 23.0332 97.1494 23.2822C97.2568 23.5264 97.4424 23.7241 97.7061 23.8755C97.9697 24.0269 98.3408 24.1025 98.8193 24.1025C99.1123 24.1025 99.4443 24.0635 99.8154 23.9854ZM104.583 23.9194C105.038 23.7485 105.509 23.4556 105.997 23.0405C106.036 23.4067 106.124 23.7266 106.261 24H107.638C107.472 23.7021 107.359 23.3921 107.301 23.0698C107.247 22.7427 107.22 21.9663 107.22 20.7407V18.9829C107.22 18.397 107.198 17.9917 107.154 17.7671C107.076 17.4058 106.939 17.1079 106.744 16.8735C106.549 16.6343 106.244 16.4365 105.829 16.2803C105.414 16.124 104.874 16.0459 104.21 16.0459C103.541 16.0459 102.953 16.1387 102.445 16.3242C101.937 16.5049 101.549 16.7661 101.28 17.1079C101.012 17.4448 100.819 17.8892 100.702 18.4409L101.991 18.6167C102.132 18.0649 102.35 17.6816 102.643 17.4668C102.94 17.2471 103.399 17.1372 104.02 17.1372C104.684 17.1372 105.184 17.2861 105.521 17.584C105.77 17.8037 105.895 18.1821 105.895 18.7192C105.895 18.7681 105.892 18.8828 105.887 19.0635C105.384 19.2393 104.601 19.3906 103.536 19.5176C103.014 19.5811 102.623 19.647 102.364 19.7153C102.013 19.813 101.695 19.957 101.412 20.1475C101.134 20.3379 100.907 20.5918 100.731 20.9092C100.56 21.2217 100.475 21.5684 100.475 21.9492C100.475 22.5986 100.704 23.1333 101.163 23.5532C101.622 23.9683 102.279 24.1758 103.133 24.1758C103.651 24.1758 104.134 24.0903 104.583 23.9194ZM103.734 20.5942C104.691 20.4575 105.409 20.2915 105.887 20.0962V20.5796C105.887 21.1606 105.816 21.6001 105.675 21.8979C105.489 22.2837 105.199 22.5889 104.803 22.8135C104.408 23.0332 103.956 23.1431 103.448 23.1431C102.936 23.1431 102.545 23.0259 102.276 22.7915C102.013 22.5571 101.881 22.2642 101.881 21.9126C101.881 21.6831 101.942 21.4756 102.064 21.29C102.186 21.0996 102.359 20.9556 102.584 20.8579C102.809 20.7603 103.192 20.6724 103.734 20.5942ZM109.439 13.2627V24H113.314C113.963 24 114.537 23.939 115.035 23.8169C115.538 23.6948 115.965 23.5166 116.317 23.2822C116.673 23.043 117 22.7183 117.298 22.3081C117.596 21.8931 117.84 21.3706 118.031 20.7407C118.221 20.1108 118.316 19.3882 118.316 18.5728C118.316 17.6157 118.175 16.7661 117.892 16.0239C117.613 15.2769 117.191 14.6641 116.625 14.1855C116.19 13.8145 115.665 13.5581 115.05 13.4165C114.61 13.314 113.973 13.2627 113.138 13.2627H109.439ZM113.153 22.7329H110.86V14.5298H113.116C113.961 14.5298 114.574 14.603 114.955 14.7495C115.482 14.9546 115.929 15.3599 116.295 15.9653C116.666 16.5659 116.852 17.4277 116.852 18.5508C116.852 19.3613 116.756 20.0522 116.566 20.6235C116.38 21.1899 116.119 21.6416 115.782 21.9785C115.543 22.2178 115.221 22.4033 114.815 22.5352C114.415 22.667 113.861 22.7329 113.153 22.7329ZM126.798 21.6636L125.436 21.4951C125.235 22.0518 124.964 22.457 124.623 22.7109C124.281 22.9648 123.868 23.0918 123.385 23.0918C122.735 23.0918 122.193 22.8647 121.759 22.4106C121.324 21.9565 121.083 21.3022 121.034 20.4478H126.834C126.839 20.2915 126.842 20.1743 126.842 20.0962C126.842 18.812 126.512 17.8159 125.853 17.1079C125.194 16.3999 124.344 16.0459 123.304 16.0459C122.23 16.0459 121.356 16.4072 120.682 17.1299C120.008 17.8525 119.671 18.8682 119.671 20.1768C119.671 21.4414 120.003 22.4253 120.667 23.1284C121.336 23.8267 122.24 24.1758 123.377 24.1758C124.281 24.1758 125.023 23.9561 125.604 23.5166C126.185 23.0771 126.583 22.4595 126.798 21.6636ZM125.45 19.3638H121.107C121.151 18.6851 121.378 18.1431 121.788 17.7378C122.203 17.3325 122.713 17.1299 123.319 17.1299C123.988 17.1299 124.532 17.3838 124.952 17.8916C125.226 18.2188 125.392 18.7095 125.45 19.3638ZM127.662 16.2217L130.621 24H131.852L134.796 16.2217H133.441L131.712 20.9678C131.502 21.5439 131.339 22.0371 131.222 22.4473C131.07 21.9053 130.904 21.3828 130.724 20.8799L129.054 16.2217H127.662Z" fill="#152C34"/>
</svg>
